<?xml version="1.0" encoding="UTF-8"?><svg id="Layer_1" xmlns="http://www.w3.org/2000/svg" viewBox="0 0 512 512"><path d="m256,10c33.14,0,65.3,6.48,95.59,19.27,29.29,12.37,55.61,30.08,78.22,52.64,22.63,22.58,40.4,48.89,52.81,78.18,12.86,30.35,19.38,62.62,19.38,95.91s-6.49,65.6-19.28,95.93c-12.36,29.31-30.06,55.61-52.63,78.17-22.56,22.56-48.86,40.27-78.17,52.63-30.33,12.79-62.61,19.28-95.93,19.28s-65.56-6.52-95.91-19.38c-29.29-12.41-55.59-30.18-78.18-52.81-22.56-22.61-40.27-48.92-52.64-78.22-12.79-30.29-19.27-62.46-19.27-95.59s6.52-65.27,19.38-95.58c12.42-29.28,30.19-55.6,52.82-78.23,22.63-22.63,48.95-40.4,78.22-52.82,30.31-12.86,62.47-19.38,95.58-19.38h0Zm0-10C115,0,0,115,0,256s114.21,256,256,256,256-114.22,256-256S397,0,256,0h0Z" style="fill:#e0e0e0; stroke-width:0px;"/><path d="m163.73,294.58c-4.25,1.36-8.44,1.48-12.52.34-5.4-1.51-8.73-4.75-8.74-4.76-.94-.95-2.22-1.49-3.56-1.49h-.23c-1.07,0-2.1.34-2.96.97-7.45,5.47-14.8,7.25-21.84,5.28-5.4-1.51-8.74-4.75-8.75-4.76-.94-.95-2.22-1.49-3.56-1.49h-.22c-1.06,0-2.1.34-2.96.97-7.45,5.47-14.8,7.25-21.84,5.28-5.33-1.49-8.65-4.67-8.77-4.78-1.94-1.95-5.09-1.96-7.05-.03-1.96,1.94-1.98,5.1-.05,7.07,6.1,6.18,22.02,14.14,40.47,2.66,7.5,5.37,21.48,9.86,37.34,0,4.26,3.06,10.63,5.83,18.25,5.83,3.64,0,7.57-.63,11.68-2.17l-4.69-8.92Zm-4.01-48.89c-29.54-21.9-49.36-27.74-50.2-27.98-1.65-.47-3.44-.06-4.72,1.09l-20.45,18.45-43.59-4.88c-1.76-.21-3.51.56-4.57,1.99-1.06,1.43-1.28,3.32-.57,4.96,9.52,22.09,39.88,40.75,52.5,47.75.77.43,1.6.63,2.42.63,1.76,0,3.46-.93,4.38-2.58,1.33-2.41.46-5.46-1.95-6.8-7.88-4.37-31.64-18.43-43.51-34.92l111.66,12.51h.01l22.31-6.13.25-1.41-23.97-2.68Zm-62.09-6.95l11.68-10.54c4.57,1.69,15.03,6.08,29.33,15.13l-41.01-4.59Z" style="fill:#104f79; stroke-width:0px;"/><path d="m473.12,247.44c-.98-1.58-2.74-2.48-4.62-2.34l-88.59,6.64v-7.84l59.81-4.48c1.71-.13,3.23-1.13,4.03-2.64.81-1.51.79-3.33-.06-4.82l-64.44-113.42c-.03-.06-.08-.11-.11-.17-.07-.11-.14-.21-.21-.31-.11-.15-.23-.29-.36-.43-.07-.08-.15-.16-.23-.24-.15-.14-.3-.26-.46-.38-.08-.06-.16-.13-.25-.18-.21-.14-.44-.26-.67-.37-.05-.02-.1-.05-.15-.07-.27-.11-.54-.19-.82-.25-.09-.02-.19-.03-.29-.05-.21-.03-.42-.06-.64-.06-.05,0-.1-.02-.15-.02-.06,0-.12.02-.18.02-.2.01-.4.03-.61.06-.11.02-.23.04-.35.06-.04.01-.09.02-.14.03-.15.04-.28.1-.42.15-.1.04-.21.06-.31.11-.27.12-.54.26-.78.42-.03.02-.04.04-.07.06-.22.15-.43.32-.62.51-.07.07-.13.15-.2.22-.14.15-.26.3-.38.46-.07.09-.13.19-.19.29-.09.16-.18.32-.26.49-.05.1-.1.21-.14.32-.08.19-.13.38-.18.57-.03.1-.06.2-.08.3-.06.31-.09.62-.09.93v14.56l-41.79,69.24c.75,1.79,1.3,3.7,1.65,5.68l1.5,8.46,38.64-64.03v79.7l-35.41,2.66,1.75,9.9,33.66-2.53v7.84l-18.33,1.37,16.92,4.65c1.46.4,2.66,1.44,3.26,2.83.14.33.25.67.32,1.01l87.63-6.57-15.53,26c-1.41,2.38-.62,5.45,1.76,6.85,2.38,1.41,5.45.62,6.85-1.76l20.39-34.25c.95-1.6.93-3.6-.06-5.18Zm-93.21-107.5l51.18,90.09-51.18,3.84v-93.93Zm93.71,150.79c-1.93-1.94-5.09-1.94-7.05-.02-1.18,1.16-11.95,10.96-27.53-.49-.86-.63-1.9-.97-2.96-.97h-.21c-1.33,0-2.62.54-3.56,1.49-.46.46-11.44,11.27-27.49-.52-.86-.63-1.9-.97-2.96-.97h-.22c-1.31,0-2.59.54-3.53,1.46-1.18,1.16-11.94,10.95-27.52-.49-.86-.63-1.9-.97-2.96-.97h-.21c-1.31,0-2.6.54-3.53,1.46-.56.55-3.29,3.06-7.69,4.3l-5.6,10.65c7.16.12,13.17-2.41,17.22-5.26,14.47,8.87,27.24,4.91,34.23,0,6.25,3.84,12.18,5.27,17.47,5.27,6.95,0,12.79-2.48,16.75-5.27,17.05,10.46,31.74,3.09,37.39-2.64,1.93-1.95,1.9-5.08-.04-7.03Z" style="fill:#104f79; stroke-width:0px;"/><path d="m372.08,262.35c-.07-.34-.18-.68-.32-1.01-.6-1.39-1.8-2.43-3.26-2.83l-31.79-8.73-6.94-39.29c-.35-1.98-.9-3.89-1.65-5.68-4.17-10.23-14.17-17.18-25.6-17.18h-17.56v-4.44c0-7.43-6.04-13.47-13.47-13.47h-22.83c-7.43,0-13.47,6.04-13.47,13.47v4.44h-17.56c-13.45,0-24.91,9.61-27.25,22.86l-6.69,37.88-.25,1.41-22.31,6.13h-.01l-9.47,2.6c-1.46.4-2.66,1.44-3.26,2.83s-.54,2.98.16,4.32l46.84,89.21c.86,1.64,2.56,2.67,4.42,2.67h120.53c1.86,0,3.56-1.03,4.43-2.67l46.83-89.21c.54-1.02.71-2.19.48-3.31Zm-126.89-79.16c0-1.91,1.56-3.47,3.47-3.47h22.83c1.92,0,3.47,1.56,3.47,3.47v4.44h-29.77v-4.44Zm9.89,164.35h-52.25l-42.54-81.03,94.79-26.05v107.08Zm6.12-118.5c-.08-.02-.16-.03-.24-.05-.58-.1-1.18-.1-1.77,0-.08.02-.16.03-.24.05-.07.02-.13.03-.2.04l-64.64,17.76,6.11-34.61c1.5-8.46,8.82-14.6,17.41-14.6h84.89c8.59,0,15.91,6.14,17.41,14.6l6.11,34.61-64.64-17.76c-.06,0-.13-.02-.2-.04Zm56.12,118.5h-52.24v-107.08l94.78,26.05-42.54,81.03Z" style="fill:#104f79; stroke-width:0px;"/></svg>