<?xml version="1.0" encoding="UTF-8"?><svg id="Layer_1" xmlns="http://www.w3.org/2000/svg" viewBox="0 0 512 512"><path d="m256,10c33.14,0,65.3,6.48,95.59,19.27,29.29,12.37,55.61,30.08,78.22,52.64,22.63,22.58,40.4,48.89,52.81,78.18,12.86,30.35,19.38,62.62,19.38,95.91s-6.49,65.6-19.28,95.93c-12.36,29.31-30.06,55.61-52.63,78.17-22.56,22.56-48.86,40.27-78.17,52.63-30.33,12.79-62.61,19.28-95.93,19.28s-65.56-6.52-95.91-19.38c-29.29-12.41-55.59-30.18-78.18-52.81-22.56-22.61-40.27-48.92-52.64-78.22-12.79-30.29-19.27-62.46-19.27-95.59s6.52-65.27,19.38-95.58c12.42-29.28,30.19-55.6,52.82-78.23,22.63-22.63,48.95-40.4,78.22-52.82,30.31-12.86,62.47-19.38,95.58-19.38m0-10C115,0,0,115,0,256s114.21,256,256,256,256-114.22,256-256S397,0,256,0h0Z" style="fill:#e0e0e0; stroke-width:0px;"/><path d="m347.35,178.61c-.15,0-.3,0-.45-.02h-165.87c-2.76,0-5-2.24-5-5v-47.05c0-15.55,12.66-28.21,28.22-28.21h119.89c15.56,0,28.21,12.66,28.21,28.21v47.07c0,1.43-.61,2.79-1.68,3.74-.92.82-2.1,1.26-3.32,1.26Zm-161.32-10.02h156.32v-42.05c0-10.04-8.17-18.21-18.21-18.21h-119.89c-10.05,0-18.22,8.17-18.22,18.21v42.05Z" style="fill:#104f79; stroke-width:0px;"/><path d="m318.65,244.53h-108.92c-13.29,0-24.87-9-28.17-21.88l-5.37-20.94c-.1-.41-.16-.82-.16-1.24v-.38c0-2.76,2.24-5,5-5h165.81c.08,0,.15,0,.23,0,1.37-.05,2.72.44,3.71,1.38.99.94,1.57,2.25,1.57,3.61v.39c0,.42-.05.83-.16,1.24l-5.36,20.94c-3.3,12.88-14.89,21.88-28.18,21.88Zm-131.27-39.44l3.87,15.08c2.17,8.46,9.77,14.36,18.49,14.36h108.92c8.72,0,16.33-5.91,18.5-14.36l3.86-15.08h-153.63Z" style="fill:#104f79; stroke-width:0px;"/><path d="m346.84,205.09h-166.52c-10.06,0-18.25-8.19-18.25-18.25,0-4.88,1.9-9.46,5.34-12.91,3.45-3.45,8.03-5.34,12.91-5.34h166.52c.28,0,.56,0,.85.03,9.77.44,17.4,8.41,17.4,18.22,0,4.88-1.9,9.46-5.34,12.91-3.28,3.27-7.62,5.16-12.21,5.33-.17.01-.43.01-.7.01Zm-166.52-26.5c-2.2,0-4.28.86-5.83,2.42-1.56,1.56-2.42,3.63-2.42,5.83,0,4.55,3.7,8.25,8.25,8.25h166.52c.08,0,.15,0,.23,0,2.17-.08,4.13-.94,5.62-2.42,1.55-1.55,2.41-3.62,2.41-5.83,0-4.45-3.48-8.07-7.92-8.23-.09,0-.18,0-.27-.02h-166.58Zm166.43-.02s0,0,0,0c0,0,0,0,0,0Z" style="fill:#104f79; stroke-width:0px;"/><path d="m320.31,224.53h-23.97c-2.76,0-5-2.24-5-5s2.24-5,5-5h23.97c2.76,0,5,2.24,5,5s-2.24,5-5,5Z" style="fill:#104f79; stroke-width:0px;"/><path d="m378.83,233.28h-39.8c-1.63,0-3.16-.79-4.1-2.13-.94-1.34-1.16-3.04-.6-4.58l6.49-17.87c.72-1.98,2.6-3.29,4.7-3.29h33.31c2.76,0,5,2.24,5,5v17.87c0,2.76-2.24,5-5,5Zm-32.67-10h27.67v-7.87h-24.81l-2.86,7.87Z" style="fill:#104f79; stroke-width:0px;"/><path d="m419.43,242c-.66,0-1.33-.04-1.99-.12l-25.21-1.93c-.08,0-.16-.01-.25-.02-10.34-1.31-18.14-10.16-18.14-20.58s7.8-19.27,18.14-20.58c.08,0,.16-.02.25-.02l25.21-1.93c4.78-.57,9.59.93,13.21,4.12,3.65,3.22,5.74,7.85,5.74,12.72v11.4c0,4.87-2.09,9.5-5.74,12.72-3.11,2.74-7.11,4.24-11.21,4.24Zm-26.31-12.01l25.19,1.93c.08,0,.16.01.25.02,2,.26,3.95-.34,5.47-1.68,1.52-1.34,2.35-3.19,2.35-5.22v-11.4c0-2.02-.84-3.88-2.35-5.22-1.52-1.34-3.46-1.94-5.47-1.68-.08,0-.16.02-.25.02l-25.19,1.93c-5.3.73-9.28,5.28-9.28,10.64s3.98,9.92,9.28,10.64Z" style="fill:#104f79; stroke-width:0px;"/><path d="m233.76,413.24c-14.88,0-26.98-12.1-26.98-26.98v-145.31c0-2.76,2.24-5,5-5h86.82c1.57,0,3.05.74,4,2,.94,1.26,1.24,2.88.81,4.39l-43.73,151.41c-3.31,11.48-13.97,19.49-25.92,19.49Zm-16.98-167.29v140.31c0,9.36,7.62,16.98,16.98,16.98,7.52,0,14.22-5.04,16.31-12.27l41.88-145.02h-75.17Z" style="fill:#104f79; stroke-width:0px;"/><path d="m211.78,362.72h-24.87c-10.37,0-18.81-8.44-18.81-18.81s8.44-18.81,18.81-18.81h24.87c2.76,0,5,2.24,5,5v27.63c0,2.76-2.24,5-5,5Zm-24.87-27.63c-4.86,0-8.81,3.95-8.81,8.81s3.95,8.81,8.81,8.81h19.87v-17.63h-19.87Z" style="fill:#104f79; stroke-width:0px;"/><path d="m134.6,360.33c-9.01,0-16.34-7.33-16.34-16.34s7.33-16.34,16.34-16.34,16.34,7.33,16.34,16.34-7.33,16.34-16.34,16.34Zm0-22.68c-3.5,0-6.34,2.85-6.34,6.34s2.85,6.34,6.34,6.34,6.34-2.84,6.34-6.34-2.85-6.34-6.34-6.34Z" style="fill:#104f79; stroke-width:0px;"/><path d="m139.13,337.65h-9.06c-2.43,0-4.51-1.75-4.93-4.15l-7.54-43.78c-.86-5.02.52-10.14,3.81-14.04,3.28-3.9,8.09-6.13,13.19-6.13s9.9,2.24,13.19,6.13c3.28,3.9,4.67,9.01,3.81,14.04l-7.54,43.78c-.41,2.4-2.49,4.15-4.93,4.15Zm-4.85-10h.63l6.82-39.63c.36-2.11-.22-4.26-1.6-5.89-1.38-1.64-3.4-2.58-5.54-2.58s-4.16.94-5.54,2.58c-1.38,1.64-1.96,3.79-1.6,5.9l6.82,39.62Z" style="fill:#104f79; stroke-width:0px;"/><path d="m134.6,418.43c-5.1,0-9.9-2.24-13.19-6.13-3.28-3.9-4.67-9.01-3.81-14.04l7.54-43.78c.41-2.4,2.49-4.15,4.93-4.15h9.06c2.43,0,4.51,1.75,4.93,4.15l7.54,43.78c.86,5.02-.52,10.14-3.81,14.04-3.28,3.9-8.09,6.13-13.19,6.13Zm-.32-58.1l-6.82,39.63c-.36,2.11.22,4.26,1.6,5.89,1.38,1.64,3.4,2.58,5.54,2.58s4.16-.94,5.54-2.58c1.38-1.64,1.96-3.79,1.6-5.9l-6.82-39.62h-.63Z" style="fill:#104f79; stroke-width:0px;"/><path d="m173.1,348.91h-27.16c-2.76,0-5-2.24-5-5s2.24-5,5-5h27.16c2.76,0,5,2.24,5,5s-2.24,5-5,5Z" style="fill:#104f79; stroke-width:0px;"/></svg>