<?xml version="1.0" encoding="UTF-8"?><svg id="Layer_1" xmlns="http://www.w3.org/2000/svg" viewBox="0 0 512 512"><path d="m256,10c33.14,0,65.3,6.48,95.59,19.27,29.29,12.37,55.61,30.08,78.22,52.64,22.63,22.58,40.4,48.89,52.81,78.18,12.86,30.35,19.38,62.62,19.38,95.91s-6.49,65.6-19.28,95.93c-12.36,29.31-30.06,55.61-52.63,78.17-22.56,22.56-48.86,40.27-78.17,52.63-30.33,12.79-62.61,19.28-95.93,19.28s-65.56-6.52-95.91-19.38c-29.29-12.41-55.59-30.18-78.18-52.81-22.56-22.61-40.27-48.92-52.64-78.22-12.79-30.29-19.27-62.46-19.27-95.59s6.52-65.27,19.38-95.58c12.42-29.28,30.19-55.6,52.82-78.23,22.63-22.63,48.95-40.4,78.22-52.82,30.31-12.86,62.47-19.38,95.58-19.38m0-10C115,0,0,115,0,256s114.21,256,256,256,256-114.22,256-256S397,0,256,0h0Z" style="fill:#e0e0e0; stroke-width:0px;"/><path d="m359.98,396.11h-207.96c-16.54,0-30-13.46-30-30v-110.84c0-16.54,13.46-30,30-30h207.96c16.54,0,30,13.46,30,30v110.84c0,16.54-13.46,30-30,30Zm-207.96-160.84c-11.03,0-20,8.97-20,20v110.84c0,11.03,8.97,20,20,20h207.96c11.03,0,20-8.97,20-20v-110.84c0-11.03-8.97-20-20-20h-207.96Z" style="fill:#104f79; stroke-width:0px;"/><path d="m159.26,396.11c-2.76,0-5-2.24-5-5v-47.97c0-2.76,2.24-5,5-5s5,2.24,5,5v47.97c0,2.76-2.24,5-5,5Z" style="fill:#104f79; stroke-width:0px;"/><path d="m191.51,396.11c-2.76,0-5-2.24-5-5v-85.6c0-2.76,2.24-5,5-5s5,2.24,5,5v85.6c0,2.76-2.24,5-5,5Z" style="fill:#104f79; stroke-width:0px;"/><path d="m223.75,396.11c-2.76,0-5-2.24-5-5v-47.97c0-2.76,2.24-5,5-5s5,2.24,5,5v47.97c0,2.76-2.24,5-5,5Z" style="fill:#104f79; stroke-width:0px;"/><path d="m256,396.11c-2.76,0-5-2.24-5-5v-85.6c0-2.76,2.24-5,5-5s5,2.24,5,5v85.6c0,2.76-2.24,5-5,5Z" style="fill:#104f79; stroke-width:0px;"/><path d="m288.25,396.11c-2.76,0-5-2.24-5-5v-47.97c0-2.76,2.24-5,5-5s5,2.24,5,5v47.97c0,2.76-2.24,5-5,5Z" style="fill:#104f79; stroke-width:0px;"/><path d="m320.49,396.11c-2.76,0-5-2.24-5-5v-85.6c0-2.76,2.24-5,5-5s5,2.24,5,5v85.6c0,2.76-2.24,5-5,5Z" style="fill:#104f79; stroke-width:0px;"/><path d="m352.74,396.11c-2.76,0-5-2.24-5-5v-47.97c0-2.76,2.24-5,5-5s5,2.24,5,5v47.97c0,2.76-2.24,5-5,5Z" style="fill:#104f79; stroke-width:0px;"/><path d="m384.98,164H127.02c-2.76,0-5-2.24-5-5s2.24-5,5-5h257.96c2.76,0,5,2.24,5,5s-2.24,5-5,5Z" style="fill:#104f79; stroke-width:0px;"/><path d="m165.13,202.12c-1.28,0-2.56-.49-3.54-1.46l-38.11-38.11c-.94-.94-1.46-2.21-1.46-3.54s.53-2.6,1.46-3.54l38.11-38.11c1.95-1.95,5.12-1.95,7.07,0,1.95,1.95,1.95,5.12,0,7.07l-34.58,34.58,34.58,34.58c1.95,1.95,1.95,5.12,0,7.07-.98.98-2.26,1.46-3.54,1.46Z" style="fill:#104f79; stroke-width:0px;"/><path d="m346.87,202.12c-1.28,0-2.56-.49-3.54-1.46-1.95-1.95-1.95-5.12,0-7.07l34.58-34.58-34.58-34.58c-1.95-1.95-1.95-5.12,0-7.07,1.95-1.95,5.12-1.95,7.07,0l38.11,38.11c.94.94,1.46,2.21,1.46,3.54s-.53,2.6-1.46,3.54l-38.11,38.11c-.98.98-2.26,1.46-3.54,1.46Z" style="fill:#104f79; stroke-width:0px;"/></svg>