<?xml version="1.0" encoding="UTF-8"?><svg id="Layer_1" xmlns="http://www.w3.org/2000/svg" viewBox="0 0 512 512"><path d="m430.37,331.25c-23.1,0-34.69,6.55-46.03,12.85-10.58,5.96-20.66,11.51-41.16,11.51-8.65,0-16.21-1.01-22.93-3.11-7.06-2.18-12.51-5.21-18.39-8.48-4.2-2.35-8.48-4.79-13.44-6.8-9.74-4.03-19.99-5.96-32.42-5.96s-22.76,1.93-32.42,5.96c-5.12,2.1-9.41,4.54-13.61,6.89-10.67,5.96-20.66,11.51-41.16,11.51s-30.57-5.54-41.24-11.51c-4.2-2.35-8.57-4.79-13.61-6.89-7.73-3.28-15.62-5.04-24.86-5.71-2.35-.17-4.96-.25-7.48-.25-2.77,0-5.04,2.27-5.04,4.96s2.27,4.96,5.04,4.96c2.35,0,4.62.08,6.8.25,8.06.59,15.03,2.1,21.75,4.96,4.45,1.85,8.31,4.03,12.6,6.38,11.25,6.3,22.93,12.85,46.03,12.85s34.69-6.55,45.94-12.85c4.2-2.35,8.06-4.54,12.6-6.38,8.57-3.61,17.39-5.21,28.64-5.21s19.99,1.6,28.56,5.21c4.62,1.93,8.65,4.2,12.6,6.38,5.96,3.36,12.09,6.8,20.16,9.32,7.73,2.35,16.21,3.53,25.87,3.53,23.1,0,34.77-6.55,46.03-12.85,10.67-5.96,20.66-11.59,41.16-11.59,2.77,0,4.96-2.18,4.96-4.96s-2.18-4.96-4.96-4.96Z" style="fill:#104f79; stroke-width:0px;"/><path d="m430.37,296.15c-23.1,0-34.77,6.47-46.03,12.77-2.52,1.43-4.96,2.77-7.56,4.12l56.11-67.86c2.69-3.28,3.28-7.64,1.43-11.51-1.76-3.78-5.54-6.13-9.74-6.13h-52.24l-31.41-22.88s-.04-.03-.06-.05l-31.02-22.6c-.57-.42-1.24-.69-1.93-.84-.17-.92-.33-1.76-.59-2.59-.17-.84-.42-1.6-.76-2.44-.25-.84-.59-1.68-1.01-2.52v-.08c-.59-1.26-1.26-2.52-2.02-3.7-.76-1.18-1.6-2.35-2.52-3.36-.92-1.09-1.93-2.1-2.94-3.02-1.51-1.43-3.19-2.6-4.96-3.53-.59-.42-1.26-.76-1.85-1.01-1.34-.67-2.77-1.26-4.28-1.68-.59-.25-1.18-.42-1.85-.5-.5-.17-1.09-.25-1.68-.34-1.68-.34-3.44-.5-5.21-.5h-62.57l-6.55-14.03h32c2.77,0,4.96-2.18,4.96-4.96s-2.18-4.96-4.96-4.96h-65.68c-2.77,0-5.04,2.18-5.04,4.96s2.27,4.96,5.04,4.96h22.68l6.64,14.03h-27.72c-9.66,0-17.55,7.81-17.55,17.55s7.9,17.55,17.55,17.55h9.91l-17.97,36.54h-7.22c-1.6,0-3.11.76-4.03,2.1l-15.12,21.5h-15.37c-1.6,0-3.11.84-4.12,2.1l-30.49,43.51c-3.44-.42-7.14-.59-11-.59-2.77,0-5.04,2.18-5.04,4.96s2.27,4.96,5.04,4.96c3.78,0,7.31.17,10.67.59.17,0,.34,0,.5.08.59,0,1.09.08,1.6.17,4.79.67,9.24,1.85,13.52,3.44.17,0,.42.08.59.17,5.21,2.02,9.57,4.45,14.19,7.05,11.34,6.3,23.01,12.85,46.11,12.85s34.69-6.55,45.94-12.85c10.67-5.88,20.66-11.51,41.24-11.51s30.49,5.63,41.16,11.51c11.25,6.3,22.93,12.85,46.03,12.85,7.14,0,13.52-.59,19.4-1.85,11.34-2.44,19.07-6.72,26.62-11,10.58-5.88,20.66-11.51,41.16-11.51,2.77,0,4.96-2.27,4.96-4.96s-2.18-4.96-4.96-4.96Zm-184.24-105.08l45.49.07,13.98.05,8.17,5.95,8.93,6.51h-68.77c-4.3,0-7.79-3.49-7.79-7.78v-4.79Zm-69.07-9.99c-4.2,0-7.64-3.44-7.64-7.64s3.44-7.64,7.64-7.64h101.21c8.65,0,16.38,5.54,19.15,13.77l.49,1.47h-56.74c-.2,0-.4.02-.6.04h-63.51Zm20.91,9.91l38.23.06v4.81c0,9.77,7.95,17.72,17.71,17.72h82.4l19.14,13.95h-12.78c-.18-.02-.37-.03-.56-.03s-.38.01-.56.03h-22.78c-.18-.02-.37-.03-.56-.03s-.38.01-.56.03h-137.57l17.89-36.54Zm-33.6,46.45h119.69v5.96c0,4.28-3.53,7.73-7.81,7.73h-121.53l9.66-13.69Zm191.92,82.14c-1.09.17-2.27.34-3.53.42-3.02.34-6.22.5-9.57.5-20.49,0-30.57-5.63-41.15-11.59-11.25-6.3-22.93-12.77-46.03-12.77s-34.77,6.47-46.03,12.77c-10.67,5.96-20.66,11.59-41.16,11.59s-30.57-5.63-41.24-11.59c-4.7-2.69-9.66-5.38-15.54-7.64-.25-.08-.59-.25-.84-.25-2.52-1.01-5.04-1.85-7.73-2.44l26.37-37.54h146.39c9.74,0,17.72-7.9,17.72-17.64v-5.96h19.27v18.67c0,2.74,2.23,4.97,4.97,4.97s4.97-2.23,4.97-4.97v-18.67h13.98v18.67c0,2.74,2.22,4.97,4.96,4.97s4.97-2.23,4.97-4.97v-18.67h13.65v18.67c0,2.74,2.23,4.97,4.97,4.97s4.97-2.23,4.97-4.97v-18.67h55.69l-67.86,81.72c-.67.17-1.43.34-2.18.42Z" style="fill:#104f79; stroke-width:0px;"/><path d="m256,10c33.14,0,65.3,6.48,95.59,19.27,29.29,12.37,55.61,30.08,78.22,52.64,22.63,22.58,40.4,48.89,52.81,78.18,12.86,30.35,19.38,62.62,19.38,95.91s-6.49,65.6-19.28,95.93c-12.36,29.31-30.06,55.61-52.63,78.17-22.56,22.56-48.86,40.27-78.17,52.63-30.33,12.79-62.61,19.28-95.93,19.28s-65.56-6.52-95.91-19.38c-29.29-12.41-55.59-30.18-78.18-52.81-22.56-22.61-40.27-48.92-52.64-78.22-12.79-30.29-19.27-62.46-19.27-95.59s6.52-65.27,19.38-95.58c12.42-29.28,30.19-55.6,52.82-78.23,22.63-22.63,48.95-40.4,78.22-52.82,30.31-12.86,62.47-19.38,95.58-19.38m0-10C115,0,0,115,0,256s114.21,256,256,256,256-114.22,256-256S397,0,256,0h0Z" style="fill:#e0e0e0; stroke-width:0px;"/></svg>