<?xml version="1.0" encoding="UTF-8"?><svg id="Layer_1" xmlns="http://www.w3.org/2000/svg" viewBox="0 0 512 512"><path d="m256,10c33.14,0,65.3,6.48,95.59,19.27,29.29,12.37,55.61,30.08,78.22,52.64,22.63,22.58,40.4,48.89,52.81,78.18,12.86,30.35,19.38,62.62,19.38,95.91s-6.49,65.6-19.28,95.93c-12.36,29.31-30.06,55.61-52.63,78.17-22.56,22.56-48.86,40.27-78.17,52.63-30.33,12.79-62.61,19.28-95.93,19.28s-65.56-6.52-95.91-19.38c-29.29-12.41-55.59-30.18-78.18-52.81-22.56-22.61-40.27-48.92-52.64-78.22-12.79-30.29-19.27-62.46-19.27-95.59s6.52-65.27,19.38-95.58c12.42-29.28,30.19-55.6,52.82-78.22,22.63-22.63,48.95-40.4,78.22-52.82,30.31-12.86,62.47-19.38,95.58-19.38M256,0C115,0,0,115,0,256s114.21,256,256,256,256-114.22,256-256S397,0,256,0h0Z" style="fill:#e0e0e0; stroke-width:0px;"/><path d="m258,306.66c-27.11,0-49.17-22.06-49.17-49.17s22.06-49.17,49.17-49.17,49.17,22.06,49.17,49.17-22.06,49.17-49.17,49.17Zm0-88.33c-21.6,0-39.17,17.57-39.17,39.17s17.57,39.17,39.17,39.17,39.17-17.57,39.17-39.17-17.57-39.17-39.17-39.17Z" style="fill:#104f79; stroke-width:0px;"/><path d="m220.41,239.31c-1.49,0-2.95-.66-3.94-1.92-34.8-44.45-28.12-75.46-21.05-89.99,10.22-20.98,33.39-34.02,60.47-34.02,20.55,0,38,5.08,50.48,14.69,11.42,8.8,17.97,21.17,17.97,33.94,0,20.28-11.74,26.97-21.16,32.35-9.41,5.37-16.84,9.61-16.12,25.88.12,2.76-2.01,5.09-4.77,5.22-2.73.09-5.09-2.01-5.22-4.77-.99-22.38,11.29-29.38,21.16-35.01,9.01-5.14,16.12-9.19,16.12-23.66,0-25.36-29.41-38.63-58.46-38.63-23.22,0-42.95,10.88-51.48,28.4-6.05,12.43-11.52,39.28,19.93,79.45,1.7,2.17,1.32,5.32-.85,7.02-.91.72-2,1.06-3.08,1.06Z" style="fill:#104f79; stroke-width:0px;"/><path d="m190.15,366.87c-21.95,0-43.09-13.32-55.9-35.5-10.27-17.79-14.6-35.45-12.52-51.06,1.91-14.29,9.35-26.15,20.41-32.54,17.56-10.14,29.22-3.32,38.59,2.16,9.35,5.47,16.74,9.78,30.47,1.02,2.33-1.49,5.42-.8,6.9,1.53,1.49,2.33.8,5.42-1.53,6.9-18.89,12.05-31.09,4.91-40.9-.82-8.95-5.23-16.02-9.36-28.55-2.13-21.97,12.68-18.75,44.79-4.23,69.94,11.61,20.11,30.9,31.74,50.33,30.39,13.79-.97,39.78-9.67,58.84-56.98,1.03-2.56,3.94-3.8,6.51-2.77,2.56,1.03,3.8,3.94,2.77,6.51-21.09,52.36-51.29,62.09-67.41,63.22-1.27.09-2.54.13-3.8.13Z" style="fill:#104f79; stroke-width:0px;"/><path d="m327.44,367.88c-7.12,0-13.95-1.74-19.93-5.19-17.56-10.14-17.49-23.65-17.43-34.5.06-10.83.1-19.39-14.35-26.9-2.45-1.27-3.4-4.29-2.13-6.74,1.27-2.45,4.29-3.4,6.74-2.13,19.88,10.33,19.8,24.47,19.74,35.83-.05,10.37-.1,18.56,12.43,25.79,21.96,12.68,48.16-6.15,62.69-31.31,11.61-20.11,12.05-42.64,1.15-58.79-7.74-11.46-28.26-29.61-78.77-22.46-2.74.39-5.26-1.52-5.65-4.25-.39-2.73,1.51-5.26,4.25-5.65,55.89-7.92,79.41,13.37,88.46,26.77,13.06,19.34,12.77,45.93-.77,69.38-10.27,17.79-23.4,30.37-37.96,36.37-6.13,2.52-12.39,3.78-18.45,3.78Z" style="fill:#104f79; stroke-width:0px;"/><path d="m258,277.2c-10.87,0-19.71-8.84-19.71-19.71s8.84-19.71,19.71-19.71,19.71,8.84,19.71,19.71-8.84,19.71-19.71,19.71Zm0-29.41c-5.35,0-9.71,4.35-9.71,9.71s4.35,9.71,9.71,9.71,9.71-4.35,9.71-9.71-4.35-9.71-9.71-9.71Z" style="fill:#104f79; stroke-width:0px;"/><path d="m258,385.26c-11.73,0-23.34-1.59-34.53-4.72-2.66-.74-4.21-3.5-3.47-6.16.74-2.66,3.5-4.21,6.16-3.47,10.31,2.89,21.02,4.35,31.83,4.35s21.24-1.42,31.41-4.23c2.66-.73,5.42.83,6.15,3.49.74,2.66-.83,5.42-3.49,6.15-11.04,3.05-22.51,4.6-34.07,4.6Z" style="fill:#104f79; stroke-width:0px;"/><path d="m375.24,225.99c-2.13,0-4.11-1.37-4.77-3.52-5.63-18.09-15.72-34.78-29.2-48.25-1.95-1.95-1.95-5.12,0-7.07,1.95-1.95,5.12-1.95,7.07,0,14.62,14.62,25.57,32.72,31.68,52.35.82,2.64-.65,5.44-3.29,6.26-.5.15-1,.23-1.49.23Z" style="fill:#104f79; stroke-width:0px;"/><path d="m139.75,229.39c-.45,0-.9-.06-1.35-.19-2.66-.74-4.21-3.5-3.47-6.16,5.88-21.04,17.19-40.36,32.72-55.89,1.95-1.95,5.12-1.95,7.07,0,1.95,1.95,1.95,5.12,0,7.07-14.32,14.32-24.75,32.13-30.16,51.51-.62,2.21-2.63,3.66-4.81,3.66Z" style="fill:#104f79; stroke-width:0px;"/><path d="m258,416.61c-28.01,0-55.55-7.38-79.66-21.34-2.39-1.38-3.2-4.44-1.82-6.83,1.38-2.39,4.44-3.2,6.83-1.82,22.58,13.08,48.39,20,74.64,20s52.43-7.01,75.13-20.28c2.39-1.39,5.45-.59,6.84,1.79,1.39,2.38.59,5.45-1.79,6.84-24.23,14.16-51.96,21.65-80.18,21.65Z" style="fill:#104f79; stroke-width:0px;"/><path d="m412.12,262.49c-2.76,0-5-2.24-5-5,0-26.53-7.05-52.57-20.39-75.32-12.95-22.09-31.49-40.59-53.59-53.52-2.38-1.39-3.19-4.46-1.79-6.84,1.39-2.38,4.45-3.19,6.84-1.79,23.58,13.78,43.35,33.53,57.17,57.09,14.24,24.28,21.77,52.08,21.77,80.38,0,2.76-2.24,5-5,5Z" style="fill:#104f79; stroke-width:0px;"/><path d="m103.88,262.49c-2.76,0-5-2.24-5-5,0-28.32,7.54-56.13,21.79-80.42,13.83-23.57,33.62-43.32,57.23-57.1,2.39-1.39,5.45-.59,6.84,1.8,1.39,2.38.59,5.45-1.8,6.84-22.13,12.92-40.68,31.42-53.65,53.52-13.36,22.76-20.42,48.82-20.42,75.36,0,2.76-2.24,5-5,5Z" style="fill:#104f79; stroke-width:0px;"/></svg>