<?xml version="1.0" encoding="UTF-8"?><svg id="Layer_1" xmlns="http://www.w3.org/2000/svg" viewBox="0 0 512 512"><path d="m256,10c33.14,0,65.3,6.48,95.59,19.27,29.29,12.37,55.61,30.08,78.22,52.64,22.63,22.58,40.4,48.89,52.81,78.18,12.86,30.35,19.38,62.62,19.38,95.91s-6.49,65.6-19.28,95.93c-12.36,29.31-30.06,55.61-52.63,78.17-22.56,22.56-48.86,40.27-78.17,52.63-30.33,12.79-62.61,19.28-95.93,19.28s-65.56-6.52-95.91-19.38c-29.29-12.41-55.59-30.18-78.18-52.81-22.56-22.61-40.27-48.92-52.64-78.22-12.79-30.29-19.27-62.46-19.27-95.59s6.52-65.27,19.38-95.58c12.42-29.28,30.19-55.6,52.82-78.23,22.63-22.63,48.95-40.4,78.22-52.82,30.31-12.86,62.47-19.38,95.58-19.38m0-10C115,0,0,115,0,256s114.21,256,256,256,256-114.22,256-256S397,0,256,0h0Z" style="fill:#e0e0e0; stroke-width:0px;"/><path d="m365.67,387.07h-221.18c-12.68,0-23-10.32-23-23v-203.13c0-12.68,10.32-23,23-23h221.18c12.68,0,23,10.32,23,23v203.13c0,12.68-10.32,23-23,23Zm-221.18-239.13c-7.17,0-13,5.83-13,13v203.13c0,7.17,5.83,13,13,13h221.18c7.17,0,13-5.83,13-13v-203.13c0-7.17-5.83-13-13-13h-221.18Z" style="fill:#104f79; stroke-width:0px;"/><path d="m383.67,210.53H126.49c-2.76,0-5-2.24-5-5s2.24-5,5-5h257.18c2.76,0,5,2.24,5,5s-2.24,5-5,5Z" style="fill:#104f79; stroke-width:0px;"/><path d="m152.96,259.33c-1.06-1.99-.13-4.64,1.99-5.71,1.99-.93,4.64-.13,5.71,1.99l14.73,29.46,14.73-29.46c1.06-2.12,3.58-2.92,5.71-1.99,2.12,1.06,3.05,3.72,1.99,5.71l-18.18,36.36v38.75c0,2.52-1.73,4.25-4.25,4.25s-4.25-1.73-4.25-4.25v-38.75l-18.18-36.36Zm62.37-5.57h26.54c2.52,0,4.25,1.72,4.25,4.25s-1.73,4.25-4.25,4.25h-22.29v28.13h19.64c2.52,0,4.25,1.73,4.25,4.25s-1.73,4.25-4.25,4.25h-19.64v30.79h22.29c2.52,0,4.25,1.73,4.25,4.25s-1.73,4.25-4.25,4.25h-26.54c-2.52,0-4.25-1.73-4.25-4.25v-75.91c0-2.52,1.72-4.25,4.25-4.25Zm86.53,84.8c-2.26.66-4.51-.66-5.18-2.92-.4-1.33-.8-2.79-1.19-4.38-.93-2.79-1.86-6.5-3.05-11.15h-25.75c-1.46,4.64-2.12,8.36-3.05,11.15-.4,1.59-.8,3.05-1.2,4.38-.66,2.26-2.79,3.58-5.31,2.92-2.26-.66-3.58-2.92-2.92-5.18l21.23-76.97c.53-1.99,2.12-3.18,4.11-3.18s3.58,1.19,4.11,3.18l21.23,76.97c.66,2.26-.53,4.51-3.05,5.18Zm-22.29-65.16c-2.79,9.56-6.9,25.08-10.48,38.22h20.97c-3.58-13.14-7.96-28.66-10.48-38.22Zm65.56,26.67l12.21,32.91c.93,2.12-.27,4.51-2.52,5.44-2.12.93-4.51-.27-5.44-2.52l-12.74-34.37h-10.88v32.91c0,2.52-1.73,4.25-4.25,4.25-2.26,0-4.25-1.73-4.25-4.25v-76.44c0-2.52,1.99-4.25,4.25-4.25h15.92c11.15,0,20.17,9.02,20.17,20.17v7.43c0,8.49-5.04,15.66-12.47,18.71Zm3.98-18.71v-7.43c0-6.37-5.17-11.68-11.68-11.68h-11.68v30.79h11.68c6.5,0,11.68-5.18,11.68-11.68Z" style="fill:#104f79; stroke-width:0px;"/><path d="m314.47,174.57c-2.76,0-5-2.24-5-5v-53.01c0-2.76,2.24-5,5-5s5,2.24,5,5v53.01c0,2.76-2.24,5-5,5Zm-118.78,0c-2.76,0-5-2.24-5-5v-53.01c0-2.76,2.24-5,5-5s5,2.24,5,5v53.01c0,2.76-2.24,5-5,5Z" style="fill:#104f79; stroke-width:0px;"/></svg>